<svg xmlns="http://www.w3.org/2000/svg" viewBox="0 0 160 160" fill="none">
  <defs>
    <linearGradient id="bg" x1="16" y1="12" x2="146" y2="146" gradientUnits="userSpaceOnUse">
      <stop stop-color="#27453B" />
      <stop offset="1" stop-color="#08121A" />
    </linearGradient>
  </defs>
  <rect width="160" height="160" rx="28" fill="url(#bg)" />
  <rect x="20" y="20" width="120" height="120" rx="22" fill="#0D1C21" stroke="#9CE8C7" stroke-opacity=".24" />
  <rect x="38" y="34" width="84" height="92" rx="14" fill="#F7F3E8" />
  <rect x="48" y="46" width="64" height="18" rx="9" fill="#9CE8C7" />
  <text x="80" y="59" fill="#0A1A18" font-family="Arial, sans-serif" font-size="12" font-weight="700" text-anchor="middle">NEWS</text>
  <rect x="48" y="78" width="64" height="6" rx="3" fill="#1A3D36" opacity=".82" />
  <rect x="48" y="90" width="64" height="6" rx="3" fill="#1A3D36" opacity=".62" />
  <rect x="48" y="102" width="44" height="6" rx="3" fill="#1A3D36" opacity=".48" />
  <path d="M103 99c0-8.3 6.7-15 15-15v24c-8.3 0-15-6.7-15-15Z" fill="#1A3D36" opacity=".85" />
  <circle cx="113" cy="99" r="4" fill="#9CE8C7" />
  <rect x="30" y="114" width="64" height="20" rx="10" fill="#DDF8EC" />
  <text x="62" y="128" fill="#08151B" font-family="Arial, sans-serif" font-size="12" font-weight="700" text-anchor="middle">2025</text>
</svg>
