<svg xmlns="http://www.w3.org/2000/svg" viewBox="0 0 160 160" fill="none">
  <defs>
    <linearGradient id="bg" x1="20" y1="14" x2="146" y2="146" gradientUnits="userSpaceOnUse">
      <stop stop-color="#4B1D2A" />
      <stop offset="1" stop-color="#120811" />
    </linearGradient>
  </defs>
  <rect width="160" height="160" rx="28" fill="url(#bg)" />
  <rect x="20" y="20" width="120" height="120" rx="22" fill="#1B0F1A" stroke="#FFC6DD" stroke-opacity=".22" />
  <rect x="38" y="34" width="84" height="92" rx="14" fill="#F6F1EB" />
  <path d="M80 46 110 58v8c0 18-12.6 29.4-30 34-17.4-4.6-30-16-30-34v-8l30-12Z" fill="#ED7BAA" opacity=".95" />
  <path d="M80 54 101 62v4.5c0 11.6-7.7 19.2-21 22-13.3-2.8-21-10.4-21-22V62l21-8Z" fill="#FFF6FB" opacity=".96" />
  <rect x="48" y="102" width="64" height="6" rx="3" fill="#532135" opacity=".66" />
  <rect x="58" y="114" width="44" height="6" rx="3" fill="#532135" opacity=".44" />
  <rect x="28" y="114" width="56" height="20" rx="10" fill="#FFDDEA" />
  <text x="56" y="128" fill="#170B12" font-family="Arial, sans-serif" font-size="12" font-weight="700" text-anchor="middle">2026</text>
</svg>
